<?xml version="1.0" encoding="UTF-8"?>
<svg version="1.1" xmlns="http://www.w3.org/2000/svg" width="27" height="32">
<path d="M0 0 C3.12578143 1.6720747 5.39281175 3.7856235 7 7 C7.09611752 8.62268991 7.12982352 10.24947306 7.125 11.875 C7.12886719 13.17050781 7.12886719 13.17050781 7.1328125 14.4921875 C7 17 7 17 6.3671875 19.1328125 C5.70811952 21.32574057 5.70811952 21.32574057 8 24 C7.9375 26.5625 7.9375 26.5625 7 29 C4.4375 30.3125 4.4375 30.3125 2 31 C1.57589844 30.59007813 1.15179687 30.18015625 0.71484375 29.7578125 C-2.41637251 26.88122262 -4.44761165 25.15238299 -8.625 24 C-12.10275761 22.9695533 -13.94242247 21.84880941 -16.11328125 18.90625 C-17.92031059 15.02153494 -17.85885514 11.13995016 -17 7 C-13.0954354 -0.1344434 -7.57212079 -1.06682253 0 0 Z M-12 6 C-13.92863839 8.54229606 -14.00902291 9.78345018 -13.875 13 C-12.85086454 16.51132158 -11.94548102 17.85059493 -9 20 C-5.95349812 20.98082606 -5.95349812 20.98082606 -3 21 C-2.34 20.34 -1.68 19.68 -1 19 C-2.11375 18.773125 -3.2275 18.54625 -4.375 18.3125 C-8 17 -8 17 -9.4375 14.375 C-9.623125 13.59125 -9.80875 12.8075 -10 12 C-9.360625 11.71125 -8.72125 11.4225 -8.0625 11.125 C-5.84793921 10.17176549 -5.84793921 10.17176549 -5 8 C-3.68 8.33 -2.36 8.66 -1 9 C-0.34 11.64 0.32 14.28 1 17 C2.68681738 15.89958081 2.68681738 15.89958081 4 14 C3.92489508 10.47006863 3.39859994 8.54622955 1.3125 5.6875 C-3.51628795 2.16378987 -7.37986049 2.27822095 -12 6 Z M-6 10 C-6.33 11.32 -6.66 12.64 -7 14 C-4.525 14.495 -4.525 14.495 -2 15 C-1.67 14.34 -1.34 13.68 -1 13 C-2.37485532 11.45833358 -2.37485532 11.45833358 -4 10 C-4.66 10 -5.32 10 -6 10 Z M0 23 C0.66 24.32 1.32 25.64 2 27 C2.66 27 3.32 27 4 27 C3.67 25.68 3.34 24.36 3 23 C2.01 23 1.02 23 0 23 Z " fill="#0077C1" transform="translate(17,0)"/>
<path d="M0 0 C1.875 0.3125 1.875 0.3125 4 1 C6 4 6 4 6.8125 7.3125 C7.89883817 10.68586591 8.41813337 11.69890915 10.6875 14.125 C13 17 13 17 13.125 19.75 C12 22 12 22 9.4375 23.3125 C8.2309375 23.6528125 8.2309375 23.6528125 7 24 C5.02 22.35 3.04 20.7 1 19 C1.33 18.34 1.66 17.68 2 17 C4.96175123 17.61277612 6.38058783 18.25372522 9 20 C7.89744355 16.76583442 7.00369907 14.53268945 3.90234375 12.88671875 C2.30343701 12.2549556 0.70185455 11.629922 -0.90234375 11.01171875 C-3.75086121 9.63785279 -4.80264004 7.8736639 -6 5 C-5.34 4.34 -4.68 3.68 -4 3 C-3.01 3 -2.02 3 -1 3 C-0.67 2.01 -0.34 1.02 0 0 Z M-1 3 C-1.33 4.32 -1.66 5.64 -2 7 C0.475 7.495 0.475 7.495 3 8 C3.33 7.34 3.66 6.68 4 6 C2.62514468 4.45833358 2.62514468 4.45833358 1 3 C0.34 3 -0.32 3 -1 3 Z " fill="#57A3F4" transform="translate(12,7)"/>
<path d="M0 0 C1.98 0.495 1.98 0.495 4 1 C4 2.32 4 3.64 4 5 C2.68 4.34 1.36 3.68 0 3 C0 2.01 0 1.02 0 0 Z " fill="#3C95E4" transform="translate(14,24)"/>
</svg>
